<svg width="21" height="21" viewBox="0 0 21 21" fill="none" xmlns="http://www.w3.org/2000/svg">
<path fill-rule="evenodd" clip-rule="evenodd" d="M3 0H18C19.65 0 21 1.35 21 3V18C21 19.65 19.65 21 18 21H3C1.35 21 0 19.65 0 18V3C0 1.35 1.35 0 3 0ZM14 10.5C14 8.57 12.43 7 10.5 7C8.57 7 7 8.57 7 10.5C7 12.43 8.57 14 10.5 14C12.43 14 14 12.43 14 10.5ZM3 18V9H4.181C4.0626 9.49127 4.00186 9.99467 4 10.5C4 14.0899 6.91015 17 10.5 17C14.0899 17 17 14.0899 17 10.5C16.9986 9.99464 16.9379 9.49118 16.819 9H18V18H3ZM14 7H18V3H14V7Z" fill="white"/>
</svg>
