<svg width="25" height="25" viewBox="0 0 25 25" fill="none" xmlns="http://www.w3.org/2000/svg">
<path fill-rule="evenodd" clip-rule="evenodd" d="M5 2H20C21.65 2 23 3.35 23 5V20C23 21.65 21.65 23 20 23H5C3.35 23 2 21.65 2 20V5C2 3.35 3.35 2 5 2ZM16 12.5C16 10.57 14.43 9 12.5 9C10.57 9 9 10.57 9 12.5C9 14.43 10.57 16 12.5 16C14.43 16 16 14.43 16 12.5ZM5 20V11H6.181C6.0626 11.4913 6.00186 11.9947 6 12.5C6 16.0899 8.91015 19 12.5 19C16.0899 19 19 16.0899 19 12.5C18.9986 11.9946 18.9379 11.4912 18.819 11H20V20H5ZM16 9H20V5H16V9Z" fill="white"/>
</svg>
