<svg width="25" height="25" viewBox="0 0 25 25" fill="none" xmlns="http://www.w3.org/2000/svg">
<path d="M15.5123 16.5108C16.4312 16.2018 17.6078 18.5508 18.8603 19.4498C19.8004 20.1308 20.5203 19.9838 20.5203 19.9838L23.8587 19.9338C23.8587 19.9338 25.6033 19.8218 24.7786 18.3798C24.7103 18.2598 24.2951 17.3108 22.2938 15.3578C20.2012 13.3148 20.4848 13.6458 23.0041 10.1138C24.5392 7.96077 25.1534 6.64577 24.9612 6.08577C24.7766 5.54677 23.6491 5.68677 23.6491 5.68677L19.8878 5.71377C19.5216 5.71477 19.2111 5.83277 19.0698 6.22877C19.0669 6.23277 18.4729 7.89477 17.6808 9.30777C16.0073 12.2968 15.3393 12.4558 15.0625 12.2688C14.4271 11.8358 14.5876 10.5318 14.5876 9.60477C14.5876 6.70777 15.0029 5.49977 13.7744 5.18777C13.364 5.08377 13.0641 5.01577 12.0173 5.00577C10.6792 4.98477 9.54307 5.00577 8.89904 5.33477C8.47129 5.55777 8.14351 6.04677 8.34249 6.07477C8.59241 6.10977 9.15281 6.23477 9.45271 6.66077C9.83816 7.21277 9.82663 8.44977 9.82663 8.44977C9.82663 8.44977 10.0468 11.8608 9.30756 12.2838C8.80003 12.5738 8.10603 11.9818 6.61324 9.26777C5.85098 7.87977 5.2752 6.34577 5.2752 6.34577C5.2752 6.34577 5.1637 6.06077 4.96184 5.90477C4.72153 5.71977 4.3851 5.66077 4.3851 5.66077L0.815094 5.68477C0.815094 5.68477 0.278728 5.70077 0.0816755 5.94677C-0.0932685 6.16477 0.067257 6.61477 0.067257 6.61477C0.067257 6.61477 2.86348 13.4958 6.02977 16.9618C8.93268 20.1438 12.2316 19.9328 12.2316 19.9328H13.7263C13.7263 19.9328 14.1772 19.8788 14.4079 19.6208C14.6232 19.3808 14.6136 18.9298 14.6136 18.9298C14.6136 18.9298 14.5838 16.8208 15.5123 16.5108Z" fill="white"/>
</svg>
