<svg width="32" height="32" viewBox="0 0 32 32" fill="none" xmlns="http://www.w3.org/2000/svg">
<rect width="32" height="32" fill="#EEEEEE"/>
<path d="M14.9916 5.34137C16.1817 7.79502 12.5188 9.46154 10.8384 7.62105C10.1382 6.83696 10.4603 5.3217 12.1587 4.49828C13.0087 4.07673 14.1987 3.6935 14.9916 5.34137Z" fill="black"/>
<path d="M22.4831 4.26178C23.7778 6.93276 19.7884 8.74753 17.9598 6.74367C17.1974 5.88898 17.5475 4.24111 19.3987 3.34406C20.3233 2.8847 21.6186 2.4687 22.4831 4.26178Z" fill="black"/>
<path fill-rule="evenodd" clip-rule="evenodd" d="M14.8219 27.0944C17.5316 27.4065 20.3519 26.5559 21.4413 24.7991C22.3624 23.3252 21.6086 22.8149 20.5473 24.0049C18.3134 26.5846 15.9954 25.4224 15.0182 22.8149L15.2696 22.7302C19.9888 20.8312 22.9489 15.6738 21.0782 12.7548C18.5083 8.73039 10.4658 12.3292 9.46009 17.9691C8.53849 23.1835 10.9401 26.6693 14.8219 27.0944ZM17.7268 13.0386C18.5367 14.3421 17.5595 18.9615 14.627 21.0586C14.5433 20.4061 14.5433 19.6982 14.5989 18.9615C15.1854 13.8036 16.8613 11.6787 17.7268 13.0386Z" fill="black"/>
</svg>
